<svg class="svg-icon" viewBox="0 0 1024 1024" version="1.1" xmlns="http://www.w3.org/2000/svg">
  <path
    d="M514.389333 248.192a4.266667 4.266667 0 0 0-4.736 0l-213.333333 142.208a4.266667 4.266667 0 0 0-1.92 3.541333v361.173334a4.266667 4.266667 0 0 0 4.266667 4.266666h426.666666a4.266667 4.266667 0 0 0 4.266667-4.266666V393.941333a4.266667 4.266667 0 0 0-1.877333-3.541333l-213.333334-142.208z m-47.36-63.914667a81.066667 81.066667 0 0 1 89.941334 0l213.333333 142.208a81.066667 81.066667 0 0 1 36.096 67.456v361.173334a81.066667 81.066667 0 0 1-81.066667 81.066666H298.666667a81.066667 81.066667 0 0 1-81.066667-81.066666V393.941333a81.066667 81.066667 0 0 1 36.096-67.413333l213.333333-142.250667z" />
  <path
    d="M512 494.848a46.933333 46.933333 0 1 0 0 93.866667 46.933333 46.933333 0 0 0 0-93.866667z m-123.733333 46.933333a123.733333 123.733333 0 1 1 247.466666 0 123.733333 123.733333 0 0 1-247.466666 0z" />
</svg>