<?xml version="1.0" encoding="utf-8"?>
<!-- Svg Vector Icons : http://www.onlinewebfonts.com/icon -->
<!DOCTYPE svg PUBLIC "-//W3C//DTD SVG 1.1//EN" "http://www.w3.org/Graphics/SVG/1.1/DTD/svg11.dtd">
<svg version="1.1" xmlns="http://www.w3.org/2000/svg" xmlns:xlink="http://www.w3.org/1999/xlink" x="0px" y="0px" viewBox="0 0 1000 1000" enable-background="new 0 0 1000 1000" xml:space="preserve">
<metadata> Svg Vector Icons : http://www.onlinewebfonts.com/icon </metadata>
<g><path d="M188.2,10C90.2,10,10,90.2,10,188.2v623.6c0,98,80.2,178.2,178.2,178.2h623.6c98,0,178.2-80.2,178.2-178.2V188.2C990,90.2,909.8,10,811.8,10H188.2L188.2,10z M749.6,795c-45.2,45.2-213.8,2.3-380.4-164.2C202.7,464.2,159.8,295.6,205,250.4c39.2-39.2,86.9-107.6,158.6-18.5c71.7,89.1,36.4,114.1-4,154.5c-28.2,28.3,30.8,99.8,92.5,161.5c61.7,61.7,133.2,120.7,161.4,92.4c40.5-40.4,65.4-75.6,154.6-4C857.3,708,788.8,755.8,749.6,795L749.6,795z"/></g>
</svg>