<?xml version="1.0" standalone="no"?>
<!DOCTYPE svg PUBLIC "-//W3C//DTD SVG 20010904//EN" "http://www.w3.org/TR/2001/REC-SVG-20010904/DTD/svg10.dtd">
<svg version="1.0" xmlns="http://www.w3.org/2000/svg" width="232.000000pt" height="237.000000pt"
  viewBox="0 0 232.000000 237.000000" preserveAspectRatio="xMidYMid meet">

  <g transform="translate(0.000000,237.000000) scale(0.100000,-0.100000)" fill="#e9581f" stroke="none">
    <path d="M972 2306 c-242 -46 -437 -149 -607 -320 -101 -101 -153 -172 -212
-291 -224 -449 -135 -980 223 -1325 171 -165 352 -261 578 -305 126 -24 376
-17 496 15 453 121 782 492 849 960 13 89 6 269 -14 365 -48 231 -153 423
-321 590 -138 138 -317 239 -509 290 -124 33 -364 43 -483 21z m-279 -449 c90
-38 141 -117 142 -218 0 -56 -4 -73 -30 -115 -19 -30 -49 -60 -79 -79 -43 -26
-59 -30 -121 -30 -62 0 -78 4 -121 30 -30 19 -60 49 -79 79 -26 42 -30 59 -30
115 1 100 51 178 140 217 39 17 137 18 178 1z m573 -6 c22 -10 57 -38 77 -62
144 -167 -6 -416 -226 -375 -56 10 -121 60 -151 116 -30 55 -37 139 -17 194
46 118 200 180 317 127z m576 -8 c30 -17 62 -45 81 -73 27 -38 32 -56 35 -116
5 -81 -13 -127 -69 -182 -73 -71 -200 -83 -281 -26 -66 46 -101 103 -106 173
-5 74 10 123 57 174 73 81 188 101 283 50z m-575 -564 c146 -71 178 -266 62
-376 -113 -107 -304 -74 -369 64 -42 90 -24 198 47 269 64 64 178 83 260 43z
m22 -576 c63 -39 104 -107 109 -184 4 -49 0 -68 -23 -114 -108 -221 -436 -145
-436 100 0 183 195 293 350 198z" />
  </g>
</svg>